<?xml version="1.0" standalone="no"?>
<!DOCTYPE svg PUBLIC "-//W3C//DTD SVG 20010904//EN"
 "http://www.w3.org/TR/2001/REC-SVG-20010904/DTD/svg10.dtd">
<svg version="1.0" xmlns="http://www.w3.org/2000/svg"
 width="1300.000000pt" height="758.000000pt" viewBox="0 0 1300.000000 758.000000"
 preserveAspectRatio="xMidYMid meet">
<metadata>
Created by potrace 1.16, written by Peter Selinger 2001-2019
</metadata>
<g transform="translate(0.000000,758.000000) scale(0.100000,-0.100000)"
fill="#000000" stroke="none">
<path d="M7172 7116 c-9 -4 -46 -38 -82 -75 -67 -68 -110 -105 -110 -95 0 4
-7 1 -15 -6 -8 -6 -23 -9 -36 -5 -16 5 -18 9 -8 15 7 5 16 7 20 4 4 -2 10 5
14 16 4 11 11 18 16 14 11 -6 53 5 45 13 -2 3 7 16 22 30 l27 24 -40 -25 c-22
-14 -46 -26 -53 -26 -28 0 -115 -67 -106 -81 3 -5 1 -9 -5 -9 -6 0 -25 -17
-43 -37 -18 -20 -44 -48 -57 -62 -13 -14 -26 -38 -28 -55 -1 -16 -8 -33 -14
-37 -15 -9 -13 -19 8 -36 10 -8 12 -12 6 -8 -7 3 -13 0 -13 -7 -1 -18 -39 -67
-40 -49 0 8 -2 12 -5 9 -3 -3 -1 -17 4 -31 8 -19 6 -34 -6 -58 -9 -19 -12 -34
-6 -38 19 -12 21 -53 6 -89 -17 -42 -20 -130 -5 -170 6 -15 13 -40 17 -57 6
-28 7 -28 18 -10 11 19 11 19 19 -5 5 -17 6 -12 2 15 -3 22 -1 52 5 65 l9 25
11 -25 c11 -25 11 -24 7 5 -3 17 -10 53 -17 80 -18 78 -14 172 9 190 11 9 18
27 21 57 1 4 8 13 16 21 8 8 23 30 33 48 11 19 24 33 30 32 5 -1 12 7 15 17 3
11 0 20 -6 20 -7 0 -3 7 8 16 11 8 25 12 32 10 7 -3 13 -1 13 4 0 5 11 12 25
16 14 3 22 11 19 16 -4 6 6 8 22 6 19 -2 28 1 27 10 -2 6 4 12 12 12 8 0 15 4
15 9 0 5 9 7 20 4 12 -3 20 0 20 8 0 8 6 5 15 -7 9 -10 14 -13 13 -5 -2 7 3
16 11 19 8 2 11 0 8 -6 -7 -10 28 -25 51 -23 6 1 12 -3 12 -9 0 -5 3 -9 8 -9
4 1 9 0 12 -1 30 -11 102 -14 163 -4 27 4 47 3 47 -3 0 -5 8 -9 19 -9 12 0 17
5 13 15 -4 10 -1 12 8 6 7 -4 38 -7 69 -6 46 1 65 -4 108 -29 80 -46 125 -118
173 -280 12 -41 38 -124 58 -185 33 -104 36 -119 40 -275 6 -228 6 -342 1
-361 -3 -9 -13 -24 -22 -34 -17 -17 -18 -16 -11 9 3 15 2 26 -4 26 -14 0 -22
38 -8 44 7 3 7 5 -1 5 -7 1 -13 8 -13 16 0 8 -6 15 -13 15 -7 0 -13 10 -14 22
-2 23 -38 57 -60 58 -7 0 -13 4 -13 8 0 5 -16 14 -35 22 -19 8 -35 17 -35 22
0 4 -6 8 -14 8 -8 0 -17 7 -20 16 -4 9 -9 14 -13 11 -3 -3 -18 0 -34 8 -32 17
-69 20 -69 5 0 -5 4 -10 9 -10 14 0 23 -51 11 -65 -6 -8 -24 -15 -38 -17 -22
-2 -33 -14 -57 -65 -30 -61 -45 -77 -45 -47 0 8 -4 13 -9 9 -5 -3 -22 0 -36 7
-24 11 -29 10 -41 -7 -8 -10 -24 -19 -37 -19 -13 -1 -33 -11 -46 -23 l-23 -21
-29 25 c-32 29 -36 47 -14 69 8 9 15 23 15 32 0 10 -24 -8 -65 -49 -60 -62
-64 -69 -60 -105 2 -21 -2 -45 -7 -52 -8 -9 -8 -16 2 -25 10 -9 11 -9 5 1 -6
11 -3 11 13 1 12 -7 19 -15 17 -17 -2 -3 3 -11 11 -19 13 -14 13 -17 0 -32
-13 -14 -13 -20 -3 -30 9 -10 9 -12 -2 -9 -9 2 -18 -10 -25 -34 -10 -32 -13
-35 -31 -26 -11 6 -32 24 -48 42 -31 36 -27 13 9 -45 12 -20 27 -52 32 -72 7
-24 31 -55 74 -95 105 -98 213 -184 295 -236 l78 -49 115 6 c175 10 345 62
427 131 27 23 32 34 39 103 4 43 8 99 8 126 1 26 4 47 8 47 4 0 15 -25 23 -55
9 -30 20 -53 25 -50 5 3 11 -3 13 -12 3 -10 3 -1 2 19 -2 21 -18 68 -36 105
-18 38 -32 71 -31 76 1 4 -2 7 -8 7 -5 0 -10 8 -10 19 0 11 -29 43 -71 77
l-71 59 9 70 c4 39 7 150 7 248 -1 98 2 173 6 167 10 -16 30 -4 30 18 0 10 9
25 20 35 20 17 25 44 14 85 -5 16 -14 22 -33 22 -34 0 -51 17 -51 50 0 35 12
49 38 47 16 -1 25 -11 33 -37 14 -45 29 -61 29 -32 0 30 -38 125 -55 138 -8 6
-19 35 -25 65 -53 272 -184 491 -340 569 -25 12 -71 38 -103 57 l-57 35 -121
-4 c-66 -2 -128 -7 -137 -12z m324 -1443 c13 -5 4 -13 -37 -34 -34 -18 -47
-28 -34 -29 11 0 31 7 43 16 18 12 26 13 37 4 12 -10 15 -9 15 4 0 9 7 16 16
16 11 0 14 -8 12 -27 -2 -20 -14 -32 -47 -50 -25 -13 -47 -26 -50 -29 -6 -6 6
-4 90 12 22 4 29 3 25 -5 -4 -6 -2 -11 3 -11 11 0 36 25 65 65 21 30 29 13 15
-34 -11 -37 -18 -43 -93 -80 -45 -21 -97 -42 -116 -46 -48 -10 -85 -36 -68
-46 10 -7 10 -11 0 -21 -10 -10 -15 -10 -22 2 -5 8 -10 11 -10 6 0 -5 -7 -3
-16 5 -13 10 -17 10 -23 0 -7 -10 -12 -9 -22 6 -8 11 -22 22 -31 26 -9 3 -25
19 -35 34 -10 15 -22 31 -28 35 -6 5 -5 8 3 8 6 0 11 3 11 8 -1 4 -1 18 0 30
1 23 3 24 64 18 41 -4 55 -3 41 3 -12 5 -24 16 -26 23 -11 27 19 47 107 71 50
14 91 26 92 26 1 1 9 -2 19 -6z"/>
<path d="M7598 6412 c-26 -9 -50 -20 -54 -24 -4 -5 -14 -8 -23 -8 -9 -1 -43
-20 -75 -43 -51 -36 -59 -47 -62 -77 -1 -19 1 -39 6 -45 4 -5 10 -33 13 -62 3
-28 12 -61 18 -72 14 -21 46 -34 54 -22 2 4 28 4 57 0 83 -12 104 -11 90 3
-18 18 -15 28 9 28 11 0 17 5 14 10 -3 6 2 10 12 11 20 1 12 4 -29 13 -16 4
-28 11 -28 17 0 6 4 8 9 5 5 -3 27 8 50 24 22 17 43 30 46 30 3 0 5 -11 5 -25
0 -31 34 -35 50 -5 12 22 5 60 -11 60 -5 0 -9 11 -9 24 0 28 -27 43 -90 49
-14 2 -34 8 -45 14 l-20 12 20 2 c11 0 30 2 43 3 16 2 21 -1 18 -11 -4 -9 -2
-11 7 -6 6 4 14 8 17 8 3 0 24 6 47 14 35 12 41 17 33 31 -10 19 -60 45 -100
54 -14 3 -46 -3 -72 -12z"/>
<path d="M7035 6170 c-23 -11 -32 -20 -22 -20 13 0 6 -10 -25 -34 -24 -18 -45
-32 -47 -30 -2 2 4 16 14 31 17 27 17 27 -1 11 -17 -17 -29 -78 -15 -78 4 0
24 16 44 35 40 38 57 44 57 19 0 -8 -4 -12 -10 -9 -6 4 -7 -1 -3 -11 4 -12 14
-15 40 -11 29 5 33 4 23 -8 -10 -12 -9 -15 4 -15 14 0 20 -11 18 -31 -1 -4 7
-5 18 -2 28 8 70 52 63 69 -3 8 0 14 7 14 7 0 10 6 7 14 -3 7 -1 18 5 24 16
16 -30 40 -87 46 -37 4 -60 0 -90 -14z"/>
<path d="M7189 4983 c-59 -126 -64 -135 -80 -146 -12 -8 -14 -19 -9 -49 l8
-40 -43 4 c-24 1 -41 0 -39 -3 6 -10 -24 -19 -41 -13 -8 3 -38 1 -67 -5 -44
-10 -54 -9 -63 3 -9 12 -14 12 -35 0 l-25 -14 28 4 c23 4 28 2 23 -10 -3 -9
-6 -25 -6 -36 0 -13 -5 -18 -13 -15 -8 3 -20 1 -28 -4 -11 -7 -9 -10 9 -15 17
-5 22 -13 22 -38 -1 -51 7 -106 15 -105 11 1 34 -34 35 -53 0 -10 4 -18 8 -18
5 0 14 -11 20 -25 6 -14 8 -25 3 -25 -13 0 -34 -58 -27 -75 8 -22 24 -18 28 7
3 24 17 28 166 42 54 5 63 3 68 -12 3 -9 9 -24 13 -32 5 -9 12 -34 16 -57 3
-23 13 -47 21 -54 10 -8 11 -15 4 -24 -6 -8 -7 -36 -1 -81 18 -130 28 -148 73
-132 16 6 35 7 44 4 8 -3 12 -2 9 4 -3 6 -2 10 2 10 5 0 9 9 10 20 1 12 -13
32 -38 52 -21 17 -39 37 -39 45 0 20 31 16 57 -9 13 -12 23 -17 23 -12 0 5 -9
15 -21 22 -14 9 -19 20 -16 33 6 22 6 22 -28 9 -14 -5 -24 -14 -20 -19 11 -19
-12 -19 -28 -1 -30 35 -25 53 16 63 30 7 37 13 31 26 -3 9 -7 22 -7 29 0 16
-3 16 -28 -10 -21 -22 -21 -22 -11 -2 6 12 9 24 5 27 -3 4 0 15 8 24 11 15 11
16 -1 6 -8 -7 -17 -13 -21 -13 -11 0 -18 40 -8 46 6 3 -1 21 -15 39 -21 27
-25 42 -22 77 2 24 5 45 7 48 2 3 3 40 4 82 0 67 -2 78 -17 78 -17 0 -19 8
-32 102 -4 36 -4 36 15 17 14 -14 24 -17 37 -10 10 5 38 9 62 8 38 -2 45 -6
51 -27 4 -14 7 -21 8 -16 1 6 16 -4 34 -22 l32 -31 0 42 c0 48 -6 57 -95 144
-35 35 -61 63 -57 63 17 0 147 -72 147 -82 0 -5 4 -7 8 -4 4 2 18 -4 31 -14
l24 -18 -21 -6 c-18 -6 -20 -11 -11 -27 5 -11 14 -17 19 -14 6 3 7 -1 4 -9 -5
-12 0 -14 23 -10 15 3 35 7 44 10 9 2 22 -2 29 -11 10 -13 9 -15 -8 -15 -11 0
-25 -6 -31 -14 -10 -12 -6 -13 29 -4 34 9 40 14 34 31 -3 11 -2 17 3 14 5 -3
15 -1 23 4 13 8 12 11 -3 24 -11 7 -24 12 -31 9 -7 -3 -29 12 -50 33 -20 21
-34 30 -30 20 3 -9 2 -17 -4 -17 -12 0 -92 86 -92 99 0 6 -6 8 -14 5 -8 -3
-20 3 -27 13 -8 10 -26 24 -41 30 -35 16 -36 56 -1 42 36 -13 27 6 -13 30 -19
12 -37 21 -39 21 -2 0 -18 -30 -36 -67z"/>
<path d="M6621 5016 c-16 -19 -6 -37 17 -30 12 4 13 3 4 -3 -10 -8 -5 -25 24
-79 20 -38 40 -82 45 -98 l8 -28 -22 18 c-13 12 -17 13 -10 3 7 -8 10 -31 8
-51 -4 -29 -1 -37 15 -41 17 -4 19 -1 14 18 -4 18 -1 24 21 29 14 4 31 4 36 0
7 -4 7 1 0 15 -7 11 -17 21 -23 21 -7 0 -3 7 8 16 10 8 14 13 8 10 -6 -3 -16
6 -23 20 -6 14 -7 23 -2 20 5 -3 9 5 9 19 0 14 -4 22 -8 20 -12 -7 -19 20 -10
35 13 21 -8 50 -34 50 -13 0 -27 7 -30 16 -4 12 -2 15 9 11 8 -4 17 -2 20 3 4
6 -5 10 -19 10 -13 0 -31 2 -39 5 -7 3 -19 -1 -26 -9z"/>
<path d="M8088 4978 c-7 -18 -28 -61 -45 -95 -18 -35 -33 -68 -33 -74 0 -23
-75 -99 -97 -99 -20 0 -23 -5 -23 -39 0 -40 23 -76 41 -66 5 4 9 -1 9 -10 0
-9 5 -13 11 -9 8 5 9 -6 4 -37 -9 -53 -15 -65 -25 -49 -5 9 -8 8 -12 -2 -10
-24 11 -59 42 -69 31 -11 33 -32 2 -23 -9 2 -2 -3 16 -11 17 -8 33 -18 33 -23
7 -44 6 -62 -2 -57 -5 4 -9 2 -9 -4 0 -5 5 -11 10 -13 6 -2 12 -29 14 -60 5
-71 14 -98 31 -98 8 0 19 -9 25 -20 9 -16 8 -18 -5 -14 -8 4 -15 2 -15 -3 0
-5 14 -14 30 -20 17 -6 30 -17 30 -25 0 -10 -2 -10 -8 -1 -5 7 -8 -4 -9 -27
-2 -33 1 -40 17 -40 10 0 22 -5 26 -11 4 -8 9 -7 15 2 6 11 14 8 33 -11 21
-19 26 -20 26 -7 0 9 -4 19 -10 22 -5 3 -10 12 -10 18 0 7 7 4 15 -7 13 -17
41 -14 30 4 -3 5 10 27 30 49 l36 40 -43 20 c-24 12 -35 19 -26 17 9 -3 22 1
28 9 8 10 5 15 -17 24 l-28 11 31 -6 c32 -5 62 16 49 35 -3 7 0 8 9 5 9 -3 16
-1 16 4 0 6 28 38 63 73 37 37 57 64 50 66 -14 5 -18 63 -5 63 13 -1 42 -27
42 -38 0 -23 35 -4 38 21 3 24 7 26 80 31 42 4 92 8 110 11 27 3 34 0 42 -20
8 -21 64 -45 76 -32 8 7 -18 87 -27 87 -5 0 -6 -7 -2 -16 4 -12 2 -15 -8 -12
-8 3 -14 11 -14 19 0 8 -4 14 -10 15 -33 3 -40 15 -39 72 2 54 11 90 35 137
19 38 110 154 156 200 25 25 43 48 41 51 -8 8 -91 -81 -148 -160 -51 -71 -70
-88 -70 -67 0 34 86 161 109 161 8 0 11 3 8 6 -3 4 9 25 28 47 28 32 32 43 23
55 -14 17 -63 9 -89 -14 -13 -12 -19 -12 -25 -3 -4 7 -3 10 4 5 6 -3 13 -2 17
3 7 13 -35 5 -49 -9 -8 -8 -4 -16 12 -28 13 -10 20 -21 16 -25 -4 -4 -14 -1
-23 6 -14 11 -14 10 -2 -5 7 -10 23 -18 34 -18 28 0 12 -13 -21 -18 -15 -2
-30 -10 -35 -17 -4 -8 -15 -12 -25 -8 -14 6 -15 4 -5 -8 7 -9 8 -20 3 -29 -7
-12 -13 -12 -34 -1 -38 21 -219 0 -259 -29 -16 -12 -37 -20 -48 -17 -12 3 -19
0 -19 -8 0 -7 -3 -21 -7 -31 -6 -16 -3 -15 21 4 35 27 56 28 56 2 0 -21 -15
-27 -25 -10 -3 6 -10 10 -16 10 -10 0 10 -41 26 -52 5 -4 1 -15 -9 -27 -16
-18 -17 -21 -3 -21 8 0 18 6 20 13 3 6 6 -2 6 -20 1 -17 7 -38 15 -46 8 -8 18
-30 21 -50 4 -20 13 -38 21 -41 8 -3 14 -11 14 -17 0 -8 -5 -7 -16 2 -16 13
-54 23 -54 14 0 -3 5 -14 12 -25 16 -24 6 -35 -20 -21 -28 15 -44 69 -37 122
5 38 4 40 -5 19 -6 -14 -10 -44 -8 -67 3 -36 0 -43 -14 -43 -13 0 -18 8 -19
28 -1 15 -2 52 -3 82 -1 30 -6 63 -10 73 -5 11 -4 17 4 17 6 0 14 -9 17 -20 3
-11 9 -20 13 -20 10 0 -5 59 -25 96 -8 15 -11 32 -8 37 3 6 1 7 -5 3 -14 -9
-52 15 -52 32 0 7 -4 10 -10 7 -5 -3 -10 -1 -10 4 0 6 -4 11 -10 11 -5 0 -10
-11 -10 -23 0 -30 -29 -57 -53 -48 -16 6 -16 8 2 43 11 19 17 39 14 42 -4 3 1
6 11 6 16 0 16 2 2 28 -8 15 -23 50 -32 77 -10 28 -23 53 -28 57 -23 16 -45 7
-58 -24z m140 -317 c9 -5 21 -8 26 -8 5 1 14 -6 20 -17 8 -14 8 -20 -2 -23 -6
-3 -10 -9 -6 -14 3 -5 -5 -9 -18 -9 -20 0 -23 -5 -22 -39 1 -24 10 -50 23 -66
11 -15 21 -32 21 -36 0 -5 3 -8 8 -8 26 4 43 -3 41 -18 -3 -34 1 -42 19 -37
16 5 16 5 0 -6 -18 -11 -25 -31 -10 -29 26 4 34 -1 22 -16 -10 -12 -16 -13
-27 -4 -11 10 -12 9 -7 -5 3 -9 10 -16 14 -16 4 0 11 -7 14 -16 5 -14 4 -15
-9 -4 -12 10 -15 10 -15 -1 0 -8 -10 -19 -22 -24 -24 -11 -35 -47 -12 -38 10
4 13 -1 10 -18 -3 -13 -5 -27 -5 -31 -1 -4 -10 0 -20 9 -11 9 -17 21 -14 27 4
6 -1 4 -12 -4 -10 -8 -21 -14 -24 -13 -3 1 -5 -5 -3 -14 3 -12 -4 -14 -32 -10
-24 3 -36 0 -40 -10 -3 -8 -2 -12 3 -9 5 3 14 0 20 -7 8 -11 4 -13 -22 -9 -38
6 -47 16 -47 56 0 41 -21 98 -44 119 -14 12 -15 17 -5 17 11 0 11 2 -1 10 -10
7 -11 12 -4 18 16 11 24 41 14 47 -6 4 -10 13 -10 21 0 19 40 18 41 -1 3 -29
4 -33 13 -42 5 -4 6 5 3 22 -3 17 -9 56 -12 87 -4 32 -11 60 -16 64 -7 4 -8
-7 -4 -29 7 -37 -1 -77 -14 -77 -5 0 -6 11 -3 25 2 15 0 25 -7 25 -6 0 -11 10
-11 23 -1 12 -7 33 -15 47 -8 14 -14 44 -15 68 0 35 3 42 20 42 18 0 19 -5 13
-45 -3 -25 -2 -45 3 -45 5 0 10 19 12 43 1 23 7 43 11 45 5 2 7 12 4 22 -6 23
11 26 54 9 26 -10 27 -12 8 -19 -11 -5 -15 -9 -8 -9 6 -1 19 -4 27 -7 12 -5
15 -2 10 10 -4 11 1 22 12 31 17 12 20 11 27 -16 4 -15 15 -33 25 -38z"/>
<path d="M7740 4655 c0 -23 9 -63 21 -89 11 -26 22 -57 25 -69 2 -12 8 -23 14
-25 5 -2 10 -10 10 -17 0 -7 7 -16 16 -19 9 -3 14 -12 11 -20 -4 -9 3 -16 16
-20 12 -3 24 -1 25 4 2 6 8 8 13 4 5 -3 9 -1 9 4 0 5 -9 12 -20 15 -11 3 -20
10 -20 16 0 6 7 8 15 5 12 -5 13 -2 7 12 -5 11 -17 38 -27 62 -10 23 -23 42
-30 42 -7 0 -11 12 -10 28 1 16 7 26 15 24 9 -2 11 7 5 35 -4 21 -8 39 -9 40
-1 2 -21 5 -44 7 l-42 4 0 -43z"/>
<path d="M6671 4662 c-11 -12 -15 -12 -23 0 -6 9 -8 3 -5 -19 2 -18 0 -33 -5
-33 -14 0 -9 -68 6 -73 7 -3 17 -26 20 -51 7 -43 9 -46 37 -46 28 0 29 2 31
48 4 102 -3 143 -29 169 -17 17 -21 17 -32 5z"/>
<path d="M9126 4612 c-12 -19 -13 -71 -2 -75 7 -2 6 -12 -4 -28 -9 -13 -14
-37 -12 -52 3 -27 4 -28 27 -13 30 19 40 1 16 -29 -15 -18 -15 -19 1 -6 27 21
46 8 40 -28 -2 -17 1 -37 7 -45 6 -7 12 -25 13 -40 1 -14 5 -26 9 -26 8 0 5
-38 -4 -46 -14 -14 -6 -34 13 -34 11 0 20 5 20 12 0 6 3 8 6 5 4 -4 1 -13 -6
-22 -8 -9 -8 -15 -2 -15 6 0 14 5 17 10 10 16 27 0 22 -21 -3 -12 0 -19 8 -19
8 0 16 -8 19 -17 3 -10 3 18 0 62 -3 44 -11 85 -17 90 -33 27 -87 131 -87 166
0 16 -11 47 -25 69 -14 22 -25 45 -25 52 -1 23 -27 61 -34 50z"/>
<path d="M7545 4566 c-11 -12 -21 -33 -23 -47 -1 -13 -5 -38 -7 -54 -4 -26 -2
-31 17 -32 12 -1 28 -9 37 -18 14 -13 13 -15 -9 -15 -23 -1 -23 -2 -7 -11 10
-6 21 -8 24 -5 4 3 12 1 18 -4 9 -8 14 -5 18 10 3 11 1 20 -4 20 -5 0 -9 7 -9
16 0 11 6 15 20 11 19 -5 20 -2 14 31 -10 55 -22 82 -39 88 -8 4 -15 12 -15
20 0 19 -11 16 -35 -10z"/>
<path d="M8947 4538 c-26 -9 -28 -13 -23 -47 5 -26 4 -32 -3 -21 -9 13 -11 13
-11 -1 0 -10 -7 -16 -17 -15 -16 1 -19 -7 -14 -46 1 -9 4 -8 11 2 8 13 10 12
10 -4 0 -15 3 -16 15 -6 11 9 15 9 15 1 0 -7 9 -9 25 -5 42 10 30 -21 -12 -33
l-38 -10 38 -2 c43 -1 51 -25 17 -54 -24 -20 -26 -35 -5 -43 11 -5 13 -10 5
-19 -5 -6 -6 -15 -2 -19 4 -4 0 -6 -8 -4 -10 2 -16 -8 -21 -32 -3 -19 -7 -28
-8 -20 -9 58 -17 72 -28 44 -3 -10 -11 -22 -16 -26 -11 -7 8 -89 29 -123 24
-41 25 -73 3 -94 -15 -14 -23 -36 -27 -71 -4 -47 -22 -72 -22 -31 0 10 -7 21
-15 25 -11 4 -15 -2 -16 -22 -1 -21 -2 -22 -6 -7 -10 40 -20 35 -19 -9 0 -49
6 -55 26 -31 7 8 16 15 21 15 5 0 6 -7 3 -15 -4 -9 0 -15 10 -15 10 0 16 -9
17 -22 1 -22 1 -22 10 2 7 21 8 19 5 -11 -3 -20 -16 -61 -30 -91 -31 -66 -34
-108 -8 -108 10 0 23 5 30 12 16 16 16 -4 0 -21 -11 -11 -9 -13 10 -8 26 6 29
-11 7 -53 -11 -22 -12 -29 -2 -33 9 -3 9 -11 1 -34 -9 -25 -8 -32 7 -41 10 -6
21 -27 25 -47 4 -21 12 -35 21 -35 11 0 10 -6 -6 -26 -12 -15 -21 -33 -21 -40
0 -8 -4 -14 -10 -14 -5 0 -6 -8 -3 -17 5 -12 2 -15 -10 -10 -9 3 -17 2 -17 -3
0 -10 13 -14 36 -11 19 2 23 -47 5 -55 -9 -4 -19 -6 -23 -6 -5 1 -8 -3 -8 -8
0 -6 6 -10 13 -10 9 0 8 -3 -2 -9 -10 -6 -11 -19 -5 -52 5 -24 8 -50 7 -56 0
-7 5 -13 13 -13 8 0 14 -4 14 -10 0 -5 -5 -10 -11 -10 -8 0 -9 -13 -5 -38 3
-21 8 -70 11 -108 l6 -70 -53 -50 c-30 -27 -72 -58 -93 -69 -22 -11 -42 -24
-44 -28 -8 -20 -59 -58 -86 -66 l-30 -9 36 -1 c20 -1 42 -8 49 -16 7 -8 18
-15 26 -15 7 0 18 -10 25 -21 7 -15 8 -19 0 -15 -7 5 -9 1 -5 -8 3 -9 12 -16
19 -16 23 0 47 -37 40 -61 -5 -14 -4 -19 4 -15 15 10 14 -7 -1 -23 -11 -11
-10 -12 0 -7 10 6 11 1 7 -17 -5 -19 -2 -25 15 -30 14 -4 19 -10 14 -18 -4 -7
-3 -10 4 -5 21 13 31 -26 14 -53 -16 -25 -16 -25 1 -12 22 18 29 11 29 -32 0
-62 -13 -96 -45 -122 -20 -16 -26 -25 -16 -25 26 0 77 62 85 103 3 22 9 34 13
29 4 -6 14 2 23 19 16 27 16 29 0 30 -14 0 -13 2 3 9 28 12 37 12 30 0 -3 -5
-1 -10 5 -10 6 0 8 -5 4 -12 -4 -7 -3 -8 5 -4 6 4 9 10 7 14 -2 4 6 8 18 8 33
2 28 -23 -11 -53 -18 -14 -32 -28 -29 -30 6 -6 116 63 168 105 22 17 44 32 49
32 11 0 23 9 71 53 34 29 44 34 31 15 -10 -18 46 19 77 49 14 13 39 33 56 42
44 26 209 220 244 287 18 33 30 71 30 94 0 21 7 43 15 50 23 19 19 29 -32 79
-47 45 -48 47 -45 103 2 31 -1 65 -7 76 -7 13 -7 22 1 30 6 6 8 22 4 35 -4 19
-11 24 -26 20 -14 -4 -20 0 -20 11 0 9 -9 21 -20 28 -26 17 -25 28 2 28 17 0
19 3 10 12 -7 7 -12 27 -12 46 0 22 -9 45 -25 64 -14 16 -25 38 -25 48 0 10
-3 26 -7 36 -5 14 -3 16 13 10 14 -5 16 -4 8 4 -19 19 34 93 62 87 30 -5 21
14 -15 35 -33 18 -41 15 -41 -18 0 -13 -8 -39 -17 -58 -15 -32 -18 -34 -30
-18 -13 16 -14 15 -8 -4 4 -16 0 -23 -15 -27 -11 -3 -20 -12 -20 -21 0 -34
-16 -12 -50 67 -29 69 -34 95 -35 162 -2 119 -32 270 -61 305 -13 15 -24 38
-24 51 0 32 -14 11 -36 -54 -15 -45 -15 -49 2 -68 11 -12 24 -17 36 -13 22 7
23 -4 2 -27 -15 -16 -14 -17 4 -12 16 4 21 -2 26 -34 11 -59 14 -117 7 -128
-3 -5 -6 -12 -7 -15 0 -3 -6 -18 -13 -34 -9 -23 -9 -31 0 -37 10 -6 10 -11 -1
-24 -12 -15 -12 -16 5 -13 16 2 21 -5 29 -39 5 -24 15 -43 21 -43 10 0 45 -76
45 -96 0 -1 -9 0 -21 3 -24 7 -39 -10 -39 -44 0 -18 6 -23 24 -23 14 0 31 8
38 18 21 30 62 52 77 43 12 -8 9 -20 -15 -67 -33 -65 -54 -80 -54 -39 0 15 -4
24 -10 20 -6 -3 -7 -17 -4 -31 5 -18 2 -24 -11 -24 -13 0 -16 -5 -10 -22 4
-13 8 -33 9 -46 1 -18 6 -22 23 -19 12 2 24 -1 26 -7 2 -6 6 0 9 12 4 12 2 22
-3 22 -5 0 -9 9 -9 20 0 11 7 20 15 20 22 0 30 -4 28 -12 -4 -12 15 -10 22 2
3 6 13 10 21 10 13 0 13 -4 -1 -30 -19 -38 -19 -39 7 -32 17 4 20 2 15 -12 -5
-12 1 -19 18 -26 31 -12 42 -38 37 -91 l-4 -41 -52 7 c-62 8 -113 13 -145 14
-18 1 -22 5 -18 21 3 11 1 22 -3 25 -7 5 -19 54 -26 112 -1 12 -5 26 -8 32 -3
5 0 12 6 14 8 3 6 6 -4 6 -10 1 -18 6 -18 12 0 5 -4 7 -10 4 -5 -3 -10 -1 -10
5 0 6 -12 4 -31 -6 -31 -16 -32 -15 -26 5 8 31 -2 26 -14 -7 -6 -18 -24 -34
-57 -49 -58 -27 -60 -21 -29 72 19 56 28 70 43 68 11 -1 13 0 7 3 -7 3 -13 12
-13 20 0 19 49 18 56 -1 4 -8 10 -12 15 -9 5 3 9 -2 9 -11 0 -12 -6 -15 -22
-9 l-23 6 20 -20 c22 -21 31 -18 37 13 2 11 13 21 25 23 28 4 38 31 17 47 -12
9 -29 10 -57 3 -54 -12 -59 -9 -74 43 l-12 44 2 -45 c1 -35 -2 -46 -16 -48
-12 -3 -17 4 -19 25 -7 104 -15 155 -34 206 -8 23 -17 53 -18 67 -2 14 -9 54
-15 88 -12 66 -8 102 11 102 6 0 8 -3 5 -6 -3 -4 -2 -15 4 -26 6 -11 13 -32
15 -46 10 -52 16 -36 9 23 -5 33 -16 78 -26 100 l-19 40 3 -34 c3 -47 -19 -50
-40 -6 -17 36 -17 37 2 51 13 10 21 11 26 3 27 -45 -1 176 -30 231 -4 8 -20
37 -35 64 -24 44 -26 52 -15 85 7 20 14 30 16 24 9 -25 23 -13 18 15 -5 26 -5
26 5 3 16 -36 24 -18 10 23 -6 20 -9 45 -5 56 3 11 3 25 -1 32 -6 9 -10 5 -14
-12 -4 -16 -14 -26 -28 -28 -19 -3 -22 1 -22 32 0 42 -6 46 -43 34z m588
-1677 c0 -14 -4 -29 -10 -33 -6 -5 -3 -8 6 -8 9 0 19 -7 23 -15 3 -9 0 -15 -8
-15 -10 0 -12 -7 -8 -22 5 -20 3 -21 -10 -11 -8 7 -18 10 -21 6 -4 -3 -7 1 -7
10 0 10 5 17 11 17 8 0 8 5 -1 15 -16 19 -44 19 -59 1 -9 -11 -7 -15 9 -19 13
-3 20 -13 19 -29 l-2 -23 -4 23 c-3 13 -10 21 -16 19 -13 -5 -13 -11 -1 -41 6
-15 4 -18 -8 -13 -11 4 -18 -1 -21 -14 -3 -10 -1 -17 4 -13 5 3 9 0 9 -5 0
-19 -32 -12 -37 9 -3 11 -9 17 -14 15 -4 -3 -13 4 -19 15 -10 18 -7 24 16 43
64 51 61 48 43 41 -10 -3 -20 -1 -23 4 -3 5 2 9 11 8 11 -1 19 10 24 32 7 35
23 61 17 28 -1 -10 3 -21 10 -23 7 -3 12 5 12 22 0 15 4 24 10 20 6 -3 10 -1
10 5 0 24 34 -24 35 -49z m-242 -64 c4 3 7 1 7 -5 0 -7 -5 -12 -12 -12 -6 0
-9 -3 -6 -6 4 -3 15 -1 27 5 26 15 37 -2 17 -30 -13 -20 -14 -20 -19 -2 -3 10
-4 1 -3 -19 3 -24 -1 -38 -8 -38 -6 0 -4 -5 4 -10 10 -6 11 -10 3 -10 -7 0
-13 -6 -13 -12 0 -7 -14 -21 -30 -30 -17 -10 -30 -25 -30 -36 0 -11 -7 -22
-15 -26 -8 -3 -15 -1 -15 4 0 6 5 10 11 10 6 0 9 9 6 20 -3 11 -1 20 4 20 4 0
6 6 3 14 -3 9 6 19 25 27 39 18 39 26 1 26 -21 0 -27 -3 -18 -9 8 -6 0 -8 -22
-6 -32 3 -35 0 -33 -22 1 -14 -1 -19 -3 -12 -9 19 -24 14 -24 -8 0 -13 -7 -20
-19 -20 -11 0 -23 -4 -26 -10 -3 -5 -11 -10 -16 -10 -6 0 -7 5 -4 10 3 6 4 10
1 10 -10 0 -131 -65 -137 -73 -3 -5 -10 -9 -15 -10 -5 -1 -8 -5 -6 -9 1 -5 -3
-8 -9 -8 -6 0 -9 -6 -6 -12 2 -7 0 -21 -5 -31 -6 -12 -5 -23 3 -33 10 -13 15
-11 30 13 l19 28 0 -25 c0 -26 -33 -55 -50 -45 -6 4 -10 2 -10 -3 0 -6 -7 -13
-16 -16 -11 -4 -15 -2 -11 7 3 7 -4 19 -14 25 -10 7 -19 19 -19 27 0 9 -27 33
-60 54 -57 37 -65 51 -29 51 9 0 19 5 21 11 2 6 16 12 31 12 27 0 51 17 25 17
-16 1 36 30 63 35 28 6 34 -14 7 -25 -20 -9 -19 -10 10 -6 28 5 32 3 32 -17 1
-20 2 -20 11 -4 5 9 17 17 26 17 10 0 13 6 9 16 -6 15 -4 15 17 1 21 -14 25
-13 48 4 l24 19 -37 -6 c-44 -6 -46 -2 -17 25 17 16 26 18 42 10 13 -7 17 -8
13 -1 -3 6 -2 13 3 16 5 4 11 -2 13 -13 3 -18 5 -18 23 -4 18 14 19 15 1 9
-15 -5 -17 -4 -8 7 7 8 9 17 5 21 -4 4 0 4 10 0 11 -4 19 0 23 10 3 9 13 16
21 16 8 0 11 -5 8 -12 -4 -7 1 -4 9 6 9 11 16 24 16 30 0 5 3 6 7 3 7 -8 33
11 33 24 0 5 -12 9 -27 10 -25 0 -25 1 -8 8 11 5 25 4 32 -1 9 -7 15 -5 19 6
5 12 10 14 19 6 6 -5 15 -7 18 -3z"/>
<path d="M9321 4487 c-2 -42 23 -156 33 -154 6 1 10 -8 9 -21 -2 -13 1 -21 7
-17 5 3 12 -11 15 -32 4 -21 11 -49 16 -63 5 -14 10 -37 11 -52 1 -15 7 -26
13 -25 5 1 11 -14 13 -32 2 -19 11 -40 19 -46 9 -7 13 -17 9 -23 -4 -7 -1 -12
9 -12 9 0 14 4 11 8 -3 5 -10 40 -16 78 -6 38 -20 81 -30 96 -11 15 -20 35
-20 45 0 10 -7 28 -15 40 -9 12 -14 26 -13 30 4 16 -15 77 -42 137 -16 34 -29
53 -29 43z"/>
<path d="M6306 4451 c5 -11 3 -13 -10 -8 -11 5 -15 3 -10 -5 5 -8 2 -9 -9 -5
-9 3 -19 1 -23 -5 -5 -7 -2 -8 7 -3 8 4 -4 -8 -26 -28 -46 -42 -60 -45 -75
-16 -7 11 -14 18 -17 15 -4 -3 2 -15 12 -26 10 -11 16 -23 13 -26 -12 -11 -43
-11 -58 0 -13 10 -13 9 -1 -6 7 -10 18 -15 25 -11 6 4 5 -1 -3 -10 -11 -14
-17 -15 -30 -5 -13 10 -14 10 -4 -2 8 -8 9 -19 3 -30 -5 -10 -7 -28 -5 -40 4
-20 3 -21 -13 -8 -25 22 -46 33 -39 21 11 -18 -21 -23 -35 -5 -8 10 -8 13 -1
9 6 -4 14 -3 18 2 8 14 -48 2 -64 -14 -8 -8 -10 -18 -5 -27 11 -16 14 -38 6
-38 -3 0 -15 8 -26 18 -20 17 -20 17 -2 -11 10 -16 16 -30 14 -31 -2 -1 -18
-13 -36 -25 -24 -17 -31 -28 -26 -40 3 -9 7 -22 7 -28 1 -23 33 -14 62 17 16
17 35 30 42 30 7 0 13 5 13 10 0 6 4 10 9 10 5 0 33 23 62 50 29 28 55 50 59
50 3 0 28 20 54 45 26 24 58 47 70 51 11 4 27 15 34 25 7 11 20 19 28 19 21 0
17 44 -7 71 -11 13 -17 18 -13 10z"/>
<path d="M6703 4400 c2 -10 1 -24 -4 -31 -6 -10 -9 -11 -9 -1 0 6 -5 12 -12
12 -6 0 -3 -8 7 -20 10 -11 22 -17 28 -13 5 3 7 2 4 -4 -6 -9 52 -109 71 -122
4 -3 19 -21 31 -40 13 -18 38 -39 55 -47 17 -7 24 -14 16 -14 -12 0 -11 -3 3
-11 18 -11 37 -5 37 12 0 6 -12 22 -27 36 -16 15 -22 23 -15 19 17 -10 15 9
-3 24 -8 7 -12 16 -9 21 3 5 1 9 -5 9 -5 0 -8 8 -6 18 1 9 -5 26 -14 37 -16
20 -16 20 6 1 13 -10 20 -24 16 -30 -4 -6 1 -4 11 3 17 14 17 15 -2 22 -11 4
-23 12 -27 18 -3 6 -15 11 -25 11 -10 0 -22 5 -26 12 -4 6 -3 8 3 5 5 -3 10 0
10 9 0 9 -7 12 -19 8 -12 -3 -30 4 -49 20 -28 24 -29 31 -4 26 6 -1 4 4 -2 11
-21 21 -46 20 -40 -1z"/>
<path d="M5695 4390 c3 -6 1 -10 -4 -10 -6 0 -11 -15 -11 -34 0 -28 -4 -34
-19 -33 -12 1 -17 6 -13 17 3 8 2 12 -3 8 -4 -4 -15 -2 -23 5 -9 6 -13 7 -10
2 7 -12 -12 -42 -27 -43 -5 0 -18 4 -27 9 -11 6 -19 5 -25 -3 -12 -21 -12 -39
0 -31 7 3 1 -6 -12 -20 -23 -25 -23 -27 -7 -52 9 -14 19 -25 22 -25 3 0 40 27
81 60 41 33 88 67 104 75 28 15 29 17 14 44 -8 16 -21 31 -30 35 -9 3 -13 2
-10 -4z"/>
<path d="M6360 4345 c-14 -8 -35 -14 -48 -15 -14 0 -26 -9 -31 -23 -5 -13 -20
-31 -33 -39 -13 -9 -45 -36 -71 -62 -26 -25 -59 -49 -72 -52 -14 -3 -25 -10
-25 -15 0 -5 -7 -9 -15 -9 -8 0 -19 -9 -25 -20 -6 -11 -16 -17 -22 -14 -6 4
-8 3 -5 -3 4 -6 -10 -26 -30 -44 -46 -39 -167 -119 -183 -119 -6 0 -8 -5 -5
-10 3 -6 -2 -13 -12 -17 -10 -4 -26 -14 -35 -22 -9 -9 -38 -27 -65 -41 -26
-14 -55 -30 -63 -36 -30 -22 -48 -24 -43 -3 3 10 8 19 12 19 3 0 33 20 66 45
33 25 63 45 68 45 15 0 147 102 147 114 0 11 -13 24 -55 56 -11 8 -17 10 -13
6 4 -5 2 -16 -5 -25 -11 -14 -10 -15 8 -2 19 14 19 14 3 -4 -17 -18 -18 -18
-37 -1 -15 14 -24 15 -40 6 -24 -12 -26 -21 -8 -39 10 -11 9 -12 -3 -6 -13 8
-13 6 -2 -7 19 -24 -5 -34 -29 -12 -21 19 -24 13 -9 -16 13 -24 -12 -40 -53
-36 -21 3 -25 0 -17 -9 7 -9 6 -15 -2 -22 -15 -12 -49 -13 -43 -2 4 6 -17 19
-30 19 -2 0 -16 -21 -31 -46 -22 -38 -25 -50 -16 -65 16 -26 -4 -34 -24 -10
-9 10 -23 17 -31 14 -11 -4 -10 -8 4 -19 16 -12 14 -12 -14 -4 -21 5 -33 5
-33 -1 0 -6 -4 -8 -8 -5 -4 2 -13 -8 -20 -23 -10 -22 -18 -27 -37 -24 -24 5
-40 28 -29 44 3 5 -1 9 -9 9 -21 0 -65 52 -49 57 7 3 25 16 40 29 l27 25 -38
-22 c-35 -20 -67 -20 -67 0 0 5 17 17 38 26 20 10 42 25 48 33 6 8 31 23 55
32 31 13 45 24 49 41 9 42 39 87 70 106 35 20 35 21 10 51 -16 20 -22 21 -39
10 -20 -12 -36 -52 -26 -68 3 -5 1 -11 -5 -15 -6 -4 -8 -11 -5 -16 11 -16 -12
-10 -26 8 -12 14 -12 16 0 8 9 -5 12 -4 7 3 -5 8 -13 8 -30 0 -24 -10 -27 -22
-13 -46 16 -25 -25 -26 -45 -1 l-19 24 13 -30 c6 -16 15 -34 20 -39 13 -16 9
-36 -6 -36 -9 0 -12 7 -9 19 3 11 -2 21 -12 25 -9 3 -14 2 -11 -3 3 -5 -1 -12
-10 -15 -8 -3 -12 -2 -9 4 4 6 -1 7 -11 3 -13 -5 -15 -3 -9 8 5 8 4 11 0 6
-14 -12 -15 -38 -2 -30 7 4 6 -1 -2 -11 -10 -11 -22 -15 -35 -11 -46 13 -55
13 -67 -1 -11 -13 -14 -12 -25 8 -8 13 -13 31 -14 41 0 10 -4 15 -10 12 -5 -3
-10 -1 -10 6 0 7 -3 10 -6 6 -3 -3 1 -16 10 -29 23 -33 20 -42 -18 -61 -34
-16 -35 -15 -75 14 -23 16 -45 29 -51 29 -5 0 -14 8 -19 19 -13 23 -43 37 -34
15 3 -9 -2 -14 -17 -14 -15 0 -20 -5 -18 -17 2 -10 8 -19 13 -19 24 -4 55 -17
55 -24 0 -5 8 -6 18 -4 24 6 46 -11 39 -30 -5 -13 -11 -13 -38 -4 -20 7 -59 8
-108 4 -101 -10 -100 -9 -148 -34 -23 -12 -51 -22 -61 -22 -10 0 -31 -13 -47
-30 -34 -36 -17 -40 28 -6 47 35 158 75 224 82 37 4 78 1 114 -9 54 -14 56
-14 52 4 -7 26 9 24 37 -6 13 -14 18 -25 12 -25 -6 0 -9 -7 -5 -16 3 -9 13
-14 24 -11 19 5 54 -25 42 -36 -3 -4 -2 -7 4 -7 5 0 24 -20 41 -44 31 -42 31
-45 14 -58 -21 -15 -42 -45 -24 -34 7 4 13 1 13 -6 1 -15 5 -30 8 -38 1 -3 4
-15 7 -28 6 -33 29 -65 74 -101 22 -18 40 -38 40 -46 0 -13 11 -19 31 -17 7 1
116 -119 171 -189 21 -27 45 -49 54 -49 8 0 13 4 10 9 -6 9 40 24 60 20 5 -1
51 -1 102 0 62 1 91 5 87 11 -4 7 2 9 19 4 13 -3 30 -3 36 1 18 11 163 14 176
3 7 -5 16 -2 24 7 9 11 10 37 2 111 -14 141 -6 137 -222 114 -503 -54 -515
-54 -508 -11 4 30 -13 76 -35 93 -15 12 -17 18 -8 18 8 0 23 -8 33 -17 18 -16
18 -16 12 1 -4 10 -16 21 -27 25 -13 5 -16 10 -9 15 6 3 23 -6 38 -21 17 -18
24 -22 21 -11 -4 12 1 21 13 28 17 9 20 7 20 -14 0 -14 5 -28 10 -31 7 -4 8 3
4 22 -7 25 -6 27 9 14 12 -10 14 -18 7 -31 -6 -10 -10 -27 -10 -38 0 -11 -7
-25 -15 -32 -17 -14 -11 -30 11 -30 18 0 120 40 219 85 39 18 86 35 106 39 37
7 181 89 221 126 12 11 25 20 30 20 5 0 18 15 29 33 12 17 19 24 15 15 -9 -28
9 -21 22 7 15 33 15 38 0 29 -7 -4 3 9 21 29 19 21 42 37 50 37 20 0 55 28 69
55 11 19 11 19 12 1 0 -14 3 -16 14 -7 10 8 20 8 40 -2 14 -8 23 -17 19 -21
-4 -4 4 -3 17 2 35 13 40 36 6 30 -18 -4 -26 -1 -26 9 0 8 -5 11 -12 7 -7 -4
-8 -3 -4 5 4 6 12 9 17 6 5 -4 14 -3 20 1 8 5 8 9 -1 14 -8 5 -7 9 4 13 9 4
16 2 16 -3 0 -6 6 -10 14 -10 8 0 16 -7 20 -15 4 -12 0 -14 -22 -10 -15 3 -20
2 -12 -1 58 -25 80 -38 80 -50 0 -8 4 -14 9 -14 5 0 12 -16 15 -36 4 -19 14
-38 22 -41 25 -9 27 4 7 34 -27 39 -44 83 -33 83 14 0 5 46 -12 64 -14 13 -17
14 -22 1 -3 -8 -3 -23 1 -32 4 -12 -5 -7 -24 12 -17 16 -29 35 -26 41 5 15 43
26 43 13 0 -5 -5 -9 -12 -9 -6 0 -8 -3 -4 -7 11 -11 55 48 62 85 3 17 12 32
18 32 13 0 33 108 28 153 -4 33 -19 35 -32 3 -11 -30 -30 -42 -40 -26 -11 18
-40 5 -40 -18 0 -10 9 -29 20 -42 21 -24 27 -60 11 -60 -5 0 -12 -9 -16 -20
-3 -11 -12 -19 -18 -17 -7 1 -11 -6 -10 -16 0 -12 -4 -16 -13 -13 -8 3 -14 1
-14 -5 0 -5 -11 -7 -25 -3 -22 5 -24 3 -22 -23 1 -18 -2 -27 -11 -25 -7 1 -22
-7 -34 -18 -12 -11 -32 -20 -44 -20 -17 0 -25 -9 -34 -35 -6 -19 -17 -35 -25
-35 -7 0 -15 -9 -18 -20 -3 -11 -14 -20 -25 -20 -10 0 -27 -9 -37 -20 -10 -11
-26 -20 -35 -20 -9 0 -25 -6 -35 -14 -16 -11 -17 -17 -7 -29 16 -19 -4 -35
-21 -18 -17 17 -31 13 -16 -5 11 -14 10 -19 -10 -35 -13 -11 -29 -19 -37 -19
-8 0 -14 -6 -14 -13 0 -8 -12 -19 -26 -25 -14 -7 -23 -8 -20 -3 8 13 -19 8
-36 -7 -8 -6 -24 -9 -35 -6 -15 4 -26 0 -35 -15 -7 -12 -18 -21 -25 -21 -7 0
-13 -4 -13 -10 0 -5 -18 -10 -39 -10 -22 0 -43 -5 -47 -11 -4 -6 -17 -8 -33
-3 -14 4 -35 6 -46 6 -10 -1 -25 4 -33 10 -12 10 -11 13 5 19 10 4 32 8 48 9
l30 2 -35 8 c-77 18 -112 29 -118 36 -4 4 6 4 21 0 17 -4 26 -3 23 2 -3 6 23
13 58 17 59 6 67 10 118 58 30 29 83 70 119 91 55 35 102 66 208 143 22 16 84
65 119 93 6 6 42 33 78 61 36 27 81 64 99 82 49 47 111 97 121 97 5 0 20 9 34
20 29 23 25 25 -10 5z"/>
<path d="M6730 4235 c0 -6 8 -21 17 -34 19 -27 25 -28 -69 2 -45 14 -47 14
-38 -3 21 -38 30 -71 19 -64 -7 4 -9 -2 -7 -17 1 -12 10 -25 18 -27 13 -5 13
-3 0 13 -8 10 -10 16 -3 12 6 -4 14 -1 16 5 3 7 6 2 7 -12 1 -14 4 -19 7 -13
3 10 10 10 25 2 18 -10 18 -12 4 -28 -24 -26 -19 -36 8 -18 25 16 46 7 46 -20
0 -7 5 -13 10 -13 6 0 10 -7 10 -15 0 -8 -4 -15 -10 -15 -5 0 -10 -5 -10 -11
0 -8 4 -9 13 0 8 6 18 7 22 3 5 -4 5 0 1 8 -4 8 1 5 12 -7 13 -14 18 -31 15
-48 -3 -15 -1 -25 6 -25 7 0 9 5 5 13 -6 9 -5 9 8 -1 9 -7 13 -22 11 -35 -3
-14 2 -31 12 -41 18 -18 40 -17 40 1 0 6 4 15 9 20 6 5 6 2 1 -7 -7 -12 -6
-13 7 -3 11 10 13 23 8 55 -5 36 -19 56 -83 122 -69 72 -88 106 -51 92 11 -4
12 -2 4 14 -5 10 -19 22 -30 25 -11 4 -18 10 -16 14 3 4 -6 20 -19 37 -13 16
-24 24 -25 19z"/>
<path d="M8520 4013 c0 -7 4 -14 9 -17 15 -10 18 -52 4 -65 -11 -10 -17 -10
-31 0 -9 7 -14 9 -9 4 4 -4 -3 -20 -15 -34 l-23 -26 30 25 30 25 -24 -27 c-22
-25 -26 -26 -41 -13 -25 22 -29 9 -13 -37 16 -47 11 -58 -20 -39 -22 14 -22
14 -4 -7 20 -22 14 -45 -17 -72 -13 -10 -19 -10 -33 1 -16 13 -17 12 -4 -4 12
-15 11 -21 -9 -42 l-23 -25 27 0 c17 0 25 4 21 11 -4 6 2 5 14 -3 19 -12 24
-9 57 27 20 22 41 39 47 37 7 -2 9 -1 5 3 -4 4 2 24 13 43 10 20 19 44 19 53
0 19 24 42 33 32 14 -13 6 -43 -13 -55 -11 -7 -20 -19 -20 -27 0 -10 8 -7 25
9 29 28 30 41 7 137 -16 65 -42 118 -42 86z"/>
<path d="M7600 3963 c0 -13 -5 -22 -11 -20 -19 4 -21 -41 -1 -46 16 -4 16 -5
0 -6 -10 0 -18 -9 -18 -18 0 -15 -2 -16 -10 -3 -7 11 -10 7 -10 -18 0 -18 4
-31 9 -27 5 3 12 1 16 -5 4 -6 11 -8 16 -5 5 4 9 -3 9 -14 0 -16 -7 -21 -27
-22 -27 -1 -26 -1 5 -9 18 -4 36 -11 39 -14 11 -11 13 -46 3 -46 -6 0 -10 -7
-10 -16 0 -8 -5 -12 -10 -9 -6 4 -10 -5 -8 -24 1 -17 6 -31 11 -31 5 0 6 7 3
16 -4 10 -2 14 6 11 7 -2 12 -10 11 -16 -2 -6 6 -11 16 -11 24 0 34 36 25 90
-4 22 -3 40 2 40 10 0 10 163 0 179 -4 6 -16 11 -26 11 -10 0 -24 8 -29 18 -9
15 -10 15 -11 -5z"/>
<path d="M8118 3930 c-11 -7 -15 -19 -12 -35 2 -14 0 -25 -6 -25 -5 0 -10 -16
-10 -35 0 -24 5 -35 14 -35 8 0 18 -6 22 -12 4 -7 4 -10 -1 -6 -7 7 -35 -14
-35 -26 0 -3 20 -6 45 -6 43 0 59 12 33 24 -10 5 -10 7 0 12 6 3 12 14 12 23
0 10 9 26 21 37 11 10 25 28 30 39 6 11 -4 4 -21 -15 l-30 -34 0 36 c0 65 -19
83 -62 58z"/>
<path d="M7899 3908 c-2 -24 3 -43 14 -50 8 -5 6 -8 -5 -8 -10 0 -19 -7 -19
-15 -1 -8 -2 -21 -3 -27 -4 -23 7 -32 15 -12 6 14 8 9 8 -18 1 -24 -4 -38 -11
-39 -7 0 -1 -6 15 -13 25 -11 26 -14 12 -32 -22 -29 -19 -60 6 -60 18 0 20 5
16 38 -3 23 1 45 10 58 8 12 10 20 4 20 -6 0 -10 17 -10 38 1 20 4 28 6 18 4
-15 7 -16 14 -5 7 11 9 10 10 -6 0 -19 1 -19 8 -1 14 36 1 66 -28 67 -14 0
-20 3 -13 6 6 2 12 14 11 26 0 21 -1 21 -9 2 -8 -19 -9 -19 -9 3 -1 15 -7 22
-21 22 -11 0 -21 -6 -21 -12z"/>
<path d="M4430 3435 c-16 -20 -5 -32 14 -16 12 10 17 9 25 -7 6 -11 8 -22 5
-25 -3 -3 4 -8 15 -12 12 -3 21 -9 21 -13 0 -13 -84 -34 -170 -43 -47 -5 -114
-13 -150 -19 -69 -11 -124 -17 -260 -26 -46 -3 -92 -10 -101 -15 -10 -5 -24
-6 -32 -3 -14 5 -163 -10 -252 -26 -47 -8 -45 -9 23 -5 58 3 72 1 72 -11 0
-11 9 -13 40 -8 27 4 40 3 40 -5 0 -6 -3 -10 -7 -10 -5 1 -55 1 -111 0 l-104
-1 5 -87 c3 -49 6 -89 6 -91 1 -2 7 0 14 4 10 6 10 4 0 -7 -22 -23 -14 -31 25
-25 70 12 231 34 302 41 30 3 132 14 225 23 94 10 187 18 208 17 20 -1 37 2
37 5 0 4 28 10 63 13 34 3 114 13 177 21 63 9 141 17 172 19 32 2 61 6 65 10
3 4 15 0 25 -10 11 -9 18 -11 18 -5 0 7 -5 12 -11 12 -5 0 -7 5 -3 12 4 6 3 8
-3 5 -6 -4 -23 12 -39 36 -16 23 -33 44 -39 46 -20 8 -103 99 -97 106 3 3 -1
3 -9 0 -12 -5 -21 5 -33 34 -16 42 -43 58 -33 21 3 -12 0 -20 -8 -20 -7 0 -16
12 -21 28 -5 20 -8 23 -11 10 -6 -25 -17 -22 -50 12 -32 34 -36 36 -53 15z"/>
<path d="M10770 3379 c0 -99 7 -109 73 -102 28 3 55 8 59 12 9 8 -60 131 -73
131 -5 0 -9 -10 -10 -22 -1 -25 -4 -19 -13 25 -4 15 -13 27 -21 27 -12 0 -15
-15 -15 -71z"/>
<path d="M6711 3374 c0 -10 -1 -26 -2 -34 -6 -40 1 -72 15 -67 8 3 16 -2 19
-14 4 -14 0 -19 -16 -20 -21 0 -21 -1 -2 -8 11 -5 23 -7 28 -4 4 2 7 -26 7
-62 0 -36 4 -64 9 -61 5 3 12 -1 15 -10 9 -22 8 -24 -9 -24 -13 0 -15 -9 -11
-45 8 -62 22 -85 52 -85 24 0 25 2 18 33 -4 17 -7 38 -7 45 0 6 -4 12 -8 12
-4 0 -5 9 -2 21 3 12 0 25 -7 29 -9 6 -9 13 -1 28 15 28 14 62 -1 62 -8 0 -9
3 -3 8 6 4 10 36 10 72 0 50 -5 73 -22 99 -28 44 -53 49 -54 13 -1 -21 -2 -23
-6 -7 -7 29 -22 42 -22 19z"/>
<path d="M7790 3359 c-1 -30 53 -774 56 -778 2 -2 23 2 48 8 25 6 82 11 127
11 45 0 111 5 146 11 l63 11 -5 37 c-3 20 -19 184 -35 365 -17 181 -31 330
-32 332 -2 1 -85 5 -185 9 -152 6 -183 5 -183 -6z"/>
<path d="M12292 3085 c-13 -29 -9 -45 13 -45 19 0 29 -38 14 -56 -9 -11 -23
-13 -50 -9 -37 6 -37 6 -37 -27 0 -27 7 -37 35 -55 26 -18 39 -21 53 -13 27
14 76 12 89 -4 9 -11 9 -15 -1 -19 -7 -2 -10 -8 -6 -12 9 -9 46 26 73 68 18
28 18 28 -14 59 -20 19 -31 40 -31 58 0 43 -29 71 -81 77 -41 5 -46 3 -57 -22z"/>
<path d="M7243 3013 c-28 -19 -29 -29 -3 -36 13 -3 18 -11 14 -20 -3 -9 38
-82 102 -178 58 -90 132 -203 163 -251 39 -59 61 -84 69 -79 10 6 -16 59 -94
197 -59 104 -131 233 -162 287 -30 53 -57 97 -61 96 -3 0 -16 -7 -28 -16z"/>
<path d="M12936 2928 c-14 -46 -14 -72 0 -108 20 -50 14 -67 -31 -86 -38 -15
-44 -34 -19 -55 14 -11 18 -11 29 4 11 16 13 16 19 1 9 -25 7 -64 -4 -64 -6 0
-19 5 -29 12 -52 32 -105 -50 -62 -96 12 -12 21 -27 21 -33 0 -16 -36 -26 -65
-19 -20 5 -27 1 -40 -24 -9 -16 -19 -30 -24 -30 -14 0 -22 -30 -11 -43 69 -82
100 -138 100 -178 0 -12 13 -52 29 -88 56 -127 71 -170 71 -201 0 -25 3 -31
16 -26 9 3 17 6 19 6 2 0 13 21 25 46 17 40 20 67 20 190 0 140 0 143 -22 146
-20 3 -22 8 -20 48 2 27 11 53 23 66 18 19 19 38 19 276 0 224 -2 257 -16 262
-25 10 -44 7 -48 -6z"/>
<path d="M12496 2859 c-21 -16 -26 -27 -22 -45 4 -13 5 -24 4 -24 -2 0 -27 9
-56 19 -52 19 -53 19 -97 0 -48 -21 -53 -30 -30 -49 8 -7 15 -19 15 -26 0 -8
9 -31 20 -51 11 -21 20 -48 20 -60 0 -12 4 -24 9 -27 5 -3 12 -21 15 -40 4
-22 13 -36 26 -39 15 -4 20 -14 20 -41 0 -20 -4 -36 -8 -36 -13 0 -42 35 -42
50 0 26 -40 96 -75 130 -26 25 -33 39 -29 56 3 13 1 29 -5 36 -43 51 -106 118
-112 118 -13 0 -19 -80 -8 -129 8 -40 7 -55 -5 -80 -22 -42 -33 -324 -17 -403
11 -50 10 -61 -3 -80 -9 -12 -16 -37 -16 -54 0 -48 76 -108 155 -123 104 -19
120 -16 166 33 22 25 50 46 62 48 19 3 22 9 21 43 0 22 -4 52 -8 68 -8 26 -6
27 26 27 38 0 63 29 53 61 -5 16 -1 19 23 19 16 0 35 6 41 14 17 20 2 107 -23
131 -32 30 -69 85 -62 92 3 4 24 -3 45 -15 21 -12 46 -22 54 -22 33 0 37 77 6
119 -14 19 -19 36 -14 50 8 25 25 28 26 4 0 -14 2 -14 9 3 14 37 30 38 43 5 6
-17 15 -31 20 -31 14 0 56 53 69 87 6 17 22 36 35 42 13 6 23 14 23 19 0 20
-43 52 -69 52 -18 0 -34 8 -42 21 -17 24 -70 39 -165 45 -61 4 -74 2 -98 -17z
m-59 -444 c34 -5 45 -12 58 -37 27 -56 -19 -77 -83 -38 -37 23 -74 28 -54 8
16 -16 15 -38 -1 -38 -7 0 -23 7 -35 16 -19 13 -20 19 -11 37 28 54 48 62 126
52z"/>
<path d="M4870 2825 c-9 -11 -22 -14 -42 -10 -23 5 -30 3 -36 -15 -4 -12 -12
-21 -17 -21 -13 0 -8 -53 5 -57 5 -2 10 -15 10 -29 0 -26 52 -132 57 -117 2 5
7 52 12 104 5 52 13 110 19 128 12 36 10 39 -8 17z"/>
<path d="M8015 2440 c-16 -4 -49 -8 -71 -9 -26 -1 -52 -9 -68 -22 -20 -15 -43
-22 -80 -23 -29 -1 -59 -6 -67 -12 -8 -7 -33 -21 -56 -33 -24 -12 -43 -27 -43
-34 0 -9 2 -9 9 1 6 9 14 3 32 -22 29 -44 39 -45 36 -7 -1 16 -5 27 -9 25 -4
-3 -5 2 -2 10 3 9 9 17 13 17 37 7 60 6 56 -1 -4 -6 2 -7 12 -3 10 4 22 12 26
20 13 22 46 15 52 -10 l6 -24 72 18 c40 10 99 24 132 31 38 9 59 18 57 26 -1
7 5 15 13 18 8 4 15 15 15 25 0 16 -7 19 -52 18 -29 -1 -66 -5 -83 -9z"/>
<path d="M8082 2179 c-155 -40 -212 -61 -212 -79 0 -6 10 -10 23 -11 21 -1 21
-1 -3 -9 -14 -4 -19 -8 -12 -9 13 -1 296 82 345 101 35 13 57 48 30 47 -10 0
-87 -18 -171 -40z"/>
<path d="M5585 2096 c-13 -29 -35 -94 -48 -143 -14 -49 -32 -103 -40 -120 -12
-23 -13 -33 -4 -42 16 -16 32 -13 17 4 -11 13 -8 15 21 16 19 1 40 1 48 0 7
-2 10 2 7 8 -4 6 2 8 14 6 11 -2 22 0 25 6 4 5 11 9 16 9 5 0 -4 -13 -21 -30
-20 -20 -42 -30 -63 -31 -18 -1 -24 -3 -14 -6 27 -7 59 3 85 27 12 11 22 18
22 15 0 -11 53 47 82 89 35 51 34 122 -2 162 -14 15 -19 24 -13 20 9 -5 11 -2
7 9 -4 9 -13 14 -21 11 -8 -3 -11 -1 -8 4 3 6 -3 10 -14 10 -11 0 -22 4 -25 9
-3 5 -15 11 -27 14 -17 5 -24 -3 -44 -47z"/>
<path d="M10230 1615 c0 -8 10 -17 23 -20 12 -3 245 -52 519 -110 273 -57 508
-107 522 -111 22 -5 26 -3 26 15 0 12 -6 24 -12 26 -22 8 -1042 215 -1060 215
-10 0 -18 -7 -18 -15z"/>
<path d="M7061 1251 c-11 -7 -10 -19 10 -67 12 -33 29 -64 35 -70 7 -5 14 -28
16 -50 4 -50 22 -51 26 -1 2 21 12 47 23 58 23 23 24 38 4 45 -8 4 -15 12 -15
19 0 18 -55 75 -72 75 -7 0 -19 -4 -27 -9z"/>
<path d="M6895 1103 c-38 -41 -71 -84 -73 -94 -5 -27 59 -89 90 -89 48 0 98
74 98 144 0 36 -27 117 -39 115 -3 0 -37 -34 -76 -76z"/>
<path d="M11559 838 c-11 -40 -22 -79 -25 -86 -7 -24 -36 -25 -76 -2 -50 28
-260 100 -272 92 -7 -4 -4 -96 9 -225 3 -23 0 -27 -13 -22 -10 4 -4 -7 12 -24
l29 -30 -7 -248 c-3 -136 -9 -258 -12 -270 l-6 -23 576 0 575 0 27 57 c14 32
36 72 48 88 13 17 36 57 51 90 34 74 175 404 175 409 0 2 -11 7 -24 10 -13 3
-32 8 -43 12 -10 3 -8 -1 7 -10 l25 -16 -30 6 c-16 4 -32 10 -35 13 -16 19
-72 51 -81 46 -5 -4 -17 -1 -25 6 -8 6 -24 13 -37 15 -12 2 -47 10 -77 18 -30
8 -66 17 -80 20 -14 3 -122 28 -240 56 -285 67 -390 90 -412 90 -13 0 -23 -18
-39 -72z"/>
<path d="M12717 238 c-52 -36 -63 -50 -108 -139 l-49 -99 60 0 60 0 0 93 0 92
46 30 c41 27 76 67 57 64 -4 -1 -34 -19 -66 -41z"/>
</g>
</svg>
